<svg height="280" viewBox="0 0 264 280" width="264" xmlns="http://www.w3.org/2000/svg" xmlns:xlink="http://www.w3.org/1999/xlink"><defs><circle id="a" cx="120" cy="120" r="120"/><path id="b" d="m124 144.610951v18.389049h4c39.764502 0 72 32.235498 72 72v9h-200v-9c0-39.764502 32.235498-72 72-72h4v-18.389049c-17.2373655-8.188579-29.6277754-24.92394-31.6948612-44.7297125-5.8248283-.8234519-10.3051388-5.8291289-10.3051388-11.8812385v-14c0-5.9459926 4.3245733-10.8819269 10-11.8340831v-6.1659169c0-30.927946 25.072054-56 56-56s56 25.072054 56 56v6.1659169c5.675427.9521562 10 5.8880905 10 11.8340831v14c0 6.0521096-4.48031 11.0577866-10.305139 11.8812385-2.067086 19.8057725-14.457496 36.5411335-31.694861 44.7297125z"/><mask id="c" fill="#fff"><use fill="#fff" fill-rule="evenodd" xlink:href="#a"/></mask><mask id="d" fill="#fff"><path d="m12 160c0 66.27417 53.72583 120 120 120s120-53.72583 120-120h12v-160h-264v160z" fill="#fff" fill-rule="evenodd"/></mask><mask id="e" fill="#fff"><use fill="#fff" fill-rule="evenodd" xlink:href="#b"/></mask><mask id="f" fill="#fff"><use fill="#fff" fill-rule="evenodd" xlink:href="#k"/></mask><mask id="g" fill="#fff"><path d="m0 0h264v280h-264z" fill="#fff" fill-rule="evenodd"/></mask><mask id="h" fill="#fff"><use fill="#fff" fill-rule="evenodd" xlink:href="#m"/></mask><mask id="i" fill="#fff"><use fill="#fff" fill-rule="evenodd" xlink:href="#l"/></mask><filter id="j" height="109.8%" width="101.5%" x="-.8%" y="-2.4%"><feOffset dx="0" dy="2" in="SourceAlpha" result="shadowOffsetOuter1"/><feColorMatrix in="shadowOffsetOuter1" result="shadowMatrixOuter1" type="matrix" values="0 0 0 0 0   0 0 0 0 0   0 0 0 0 0  0 0 0 0.2 0"/><feMerge><feMergeNode in="shadowMatrixOuter1"/><feMergeNode in="SourceGraphic"/></feMerge></filter><path id="k" d="m105.192402 29.0517235h-1.192402c-39.764502 0-72 32.235498-72 72.0000005v8.948276h200v-8.948276c0-39.7645025-32.235498-72.0000005-72-72.0000005h-1.192402c.12704.9835909.192402 1.9847278.192402 3 0 13.8071188-12.088312 25-27 25s-27-11.1928812-27-25c0-1.0152722.065362-2.0164091.192402-3z"/><path id="l" d="m183.679824 38.9488198c5.406248-4.9502576 6.707569-14.9872744 3.63788-21.4994952-3.768441-7.99547148-11.416385-8.99714723-18.745362-5.4806543-6.907873 3.3148958-13.057167 4.4191968-20.622146 2.8130616-7.258572-1.5410396-14.14463-4.2591147-21.646808-4.7054848-12.32536-.73332227-24.300021 3.8383179-32.7002648 13.0530041-1.6027694 1.7579143-2.8941739 3.7679082-4.1148436 5.805136-.9767342 1.6300479-2.0777498 3.378995-2.4932337 5.2578013-.1976606.8934044.1702261 3.0976889-.2746755 3.8296827-.4812605.7904471-2.2959036 1.5154663-3.069358 2.1019913-1.5667411 1.1886597-2.9242527 2.5300948-4.1796288 4.0472217-2.666104 3.2215699-4.1336842 6.5866159-5.3679059 10.571731-4.1029444 13.2449697-4.4506683 28.9984464.8534441 42.0039572.7070167 1.7343338 2.8981404 5.3517916 4.1862395 1.6380188.2545128-.7339865-.3345025-3.1940039-.3331804-3.9346328.0046275-2.7200678 1.5060778-20.7288016 8.0471031-30.8171388 2.1291498-3.2838248 11.9728063-15.580774 13.983457-15.6794138 1.065259 1.6928187 11.879991 12.5088471 39.942844 11.2412861 12.661868-.5719194 22.399265-6.2607738 24.737448-8.726801 1.028542 5.5327972 12.992397 13.8159056 14.815417 17.2241067 5.266279 9.8454972 6.434427 30.3035228 8.444738 30.2651392s3.453441-5.237557 3.866941-6.2302655c3.071672-7.3754023 3.59458-16.6322375 3.267019-24.5586279-.427383-10.2020808-4.638413-21.2264921-12.235124-28.2196236z"/><path id="m" d="m101.428403 98.1685688c-2.5135658 2.2940522-5.191183 3.3257402-8.5754586 2.6042942-.5823667-.12403-2.9566053-4.5382917-8.85311-4.5382917s-8.2704091 4.4142617-8.8531099 4.5382917c-3.3842757.721446-6.0618929-.310242-8.5754584-2.6042942-4.7250889-4.3129648-8.6546442-10.260383-6.2934362-16.7493874 1.2305545-3.3822389 3.231918-7.0954472 6.8727958-8.1732705 3.8877906-1.150369 9.3462674-.0020058 13.2641285-.7876401 1.2693122-.254746 2.6558996-.7074051 3.5850802-1.4582708.9291806.7508657 2.3161021 1.2035248 3.5847461 1.4582708 3.9181953.7856343 9.376672-.3627289 13.2644625.7876401 3.640878 1.0778233 5.642241 4.7910316 6.87313 8.1732705 2.361208 6.4890044-1.568347 12.4364226-6.29377 16.7493874m38.65263-72.1685688c-3.41034 8.4002532-2.093259 18.8580348-2.724367 27.6758724-.512628 7.1673218-2.019546 17.9098802-8.383808 22.5386586-3.254497 2.3670828-9.178498 6.3453676-13.430988 5.2356633-2.927331-.7638095-3.239688-9.1600983-7.086586-12.3032142-4.363564-3.5646648-9.8122986-5.1309369-15.3061359-4.8891079-2.37061.1043961-7.1650114.0796186-9.149215 1.9025862-1.9842036-1.8229676-6.7782684-1.7981901-9.1488784-1.9025862-5.4941739-.241829-10.942908 1.3244431-15.306473 4.8891079-3.8468978 3.1431159-4.1589176 11.5394047-7.0862491 12.3032142-4.2524899 1.1097043-10.1764905-2.8685805-13.4313249-5.2356633-6.3645981-4.6287784-7.8708425-15.3713368-8.3841437-22.5386586-.6307714-8.8178376.6863089-19.2756192-2.7240305-27.6758724-1.6590567 0-.5647996 16.1288693-.5647996 16.1288693v20.3562512c.0316396 15.2880841 9.5810611 38.1703245 30.7539777 46.9078835 5.178115 2.136816 16.9072995 5.606996 25.8919215 5.606996s20.7138069-3.139812 25.8919219-5.276629c21.172916-8.737558 30.722338-31.9501664 30.754314-47.2382505v-20.3562512s1.09392-16.1288693-.565136-16.1288693"/></defs><g fill="none" fill-rule="evenodd"><g transform="translate(12 40)"><use fill="#e6e6e6" xlink:href="#a"/><g fill="#65c9ff" mask="url(#c)"><path d="m0 0h240v240h-240z"/></g></g><g mask="url(#d)"><g transform="translate(32 36)"><use fill="#d0c6ac" xlink:href="#b"/><g fill="#edb98a" mask="url(#e)"><path d="m0 0h264v244h-264z" transform="translate(-32)"/></g><path d="m156 79v23c0 30.927946-25.072054 56-56 56s-56-25.072054-56-56v-23 15c0 30.927946 25.072054 56 56 56s56-25.072054 56-56z" fill="#000" fill-opacity=".1" mask="url(#e)"/></g><g fill-rule="evenodd" transform="translate(0 170)"><use fill="#e6e6e6" xlink:href="#k"/><g fill="#262e33" mask="url(#f)"><path d="m0 0h264v110h-264z"/></g><g transform="translate(32 28)"><path d="m68.784807 1.12222847c-38.27249 1.68186892-68.784807 33.24241523-68.784807 71.92949503v8.9482765h69.3616767c-3.4009355-12.0800059-5.3616767-26.2912704-5.3616767-41.5 0-14.3270264 1.7399891-27.7688885 4.784807-39.37777153zm62.853516 80.87777153h68.361677v-8.9482765c0-38.3449594-29.975046-69.68887184-67.771281-71.87788125 3.036444 11.59710415 4.771281 25.02035935 4.771281 39.32615775 0 15.2087296-1.960741 29.4199941-5.361677 41.5z" fill="#3a4c5a"/><path d="m149 58 9.555853-7.16689c1.443044-1.0822825 3.431926-1.0648375 4.855763.0425911l6.588384 5.1242989z" fill="#e6e6e6"/><g fill="#2f4351"><path d="m69 0c-4 19.3333333-2.3333333 46.6666667 5 82h-16l-14-36 6-9-6-6 19-30c2.027659-.63076136 4.027659-.9640947 6-1z"/><path d="m151 0c-4 19.3333333-2.333333 46.6666667 5 82h-16l-14-36 6-9-6-6 19-30c2.027659-.63076136 4.027659-.9640947 6-1z" transform="matrix(-1 0 0 1 282 0)"/></g></g><path d="m156 21.5390062c6.772319 4.5969503 11 11.1173134 11 18.3488739 0 7.400891-4.427985 14.0568887-11.479895 18.6686141l-5.940775-4.6800013-4.57933.3313941 1-3.1511049-.077771-.0612661c6.100262-3.1424655 10.077771-8.2951582 10.077771-14.1187058zm-48 0c-6.772319 4.5969503-11 11.1173134-11 18.3488739 0 7.400891 4.427985 14.0568887 11.479895 18.6686141l5.940775-4.6800013 4.57933.3313941-1-3.1511049.077771-.0612661c-6.100262-3.1424655-10.077771-8.2951582-10.077771-14.1187058z" fill="#f2f2f2"/></g><g fill="#000" transform="translate(76 82)"><path d="m40 15c0 7.7319865 6.2680135 14 14 14s14-6.2680135 14-14" fill-opacity=".7" transform="translate(2 52)"/><path d="m16 8c0 4.418278 5.372583 8 12 8s12-3.581722 12-8" fill-opacity=".16" transform="translate(28 40)"/><g fill-opacity=".6"><g transform="translate(0 8)"><circle cx="30" cy="22" r="6"/><circle cx="82" cy="22" r="6"/></g><path d="m26.0390934 6.21012364c-5.761538.77333852-14.7461621 5.79512426-13.9948334 11.60768746.0246881.1902432.3124702.2495357.4366477.0906826 2.4864964-3.1881586 21.7118896-7.8719456 28.7133596-6.8937786.640785.0897314 1.0637989-.5716808.6267828-.9845084-3.7444838-3.53535244-10.6206709-4.51795845-15.7819567-3.82008306" transform="matrix(.9961947 .08715574 -.08715574 .9961947 1.148612 -2.307541)"/><path d="m85.0390934 6.21012364c-5.761538.77333852-14.7461621 5.79512426-13.9948334 11.60768746.0246881.1902432.3124702.2495357.4366477.0906826 2.4864964-3.1881586 21.7118896-7.8719456 28.7133593-6.8937786.640785.0897314 1.063799-.5716808.626783-.9845084-3.7444837-3.53535244-10.6206708-4.51795845-15.7819566-3.82008306" transform="matrix(-.9961947 .08715574 .08715574 .9961947 170.626875 -7.44973)"/></g></g><g fill-rule="evenodd" mask="url(#g)"><g transform="translate(-1)"><g transform="translate(49 72)"><use fill="#331b0c" fill-rule="evenodd" xlink:href="#m"/><g fill="#2c1b18" mask="url(#h)"><path d="m0 0h264v244h-264z" transform="translate(-32)"/></g></g><use fill="#28354b" fill-rule="evenodd" xlink:href="#l"/><g fill="#2c1b18" mask="url(#i)"><path d="m0 0h264v280h-264z"/></g><g fill="#252c2f" fill-rule="nonzero" filter="url(#j)" transform="translate(68 92)"><path d="m34 41h-2.7578502c-13.9274373 0-22.2421498-7.6640714-22.2421498-20.5 0-10.373 1.8170058-20.5 23.5299306-20.5h2.9401388c21.7129248 0 23.5299306 10.127 23.5299306 20.5 0 12.0686429-10.2787252 20.5-25 20.5zm-1.6146394-35c-19.3853606 0-19.3853606 6.8410159-19.3853606 15.5015498 0 7.070393 3.116254 15.4984502 17.9709365 15.4984502h3.0290635c12.3649085 0 21-6.3729627 21-15.4984502 0-8.6605339 0-15.5015498-19.3853606-15.5015498z"/><path d="m96 41h-2.7578502c-13.9274373 0-22.2421498-7.6640714-22.2421498-20.5 0-10.373 1.8170058-20.5 23.5299306-20.5h2.9401388c21.7129246 0 23.5299306 10.127 23.5299306 20.5 0 12.0686429-10.278725 20.5-25 20.5zm-1.6146394-35c-19.3853606 0-19.3853606 6.8410159-19.3853606 15.5015498 0 7.070393 3.1194833 15.4984502 17.9709365 15.4984502h3.0290635c12.364909 0 21-6.3729627 21-15.4984502 0-8.6605339 0-15.5015498-19.3853606-15.5015498z"/><path d="m2.95454545 5.77156439c.69136364-.67527303 8.25500005-5.77156439 29.54545455-5.77156439 17.8513636 0 21.6302273 1.85267217 27.3502273 4.6518809l.418696.20662809c.3976781.14050997 2.4313214.83132082 4.8101373.9072862 2.1672342-.09300952 4.0209589-.68039328 4.5626374-.86859752 6.5286935-3.17511127 12.9193991-4.89719767 27.858302-4.89719767 21.290455 0 28.854091 5.09629136 29.545455 5.77156439 1.633863 0 2.954545 1.28994465 2.954545 2.8857822v2.88578221c0 1.5958375-1.320682 2.8857822-2.954545 2.8857822 0 0-6.901458 0-6.901458 2.8857822s-1.962179-4.1757269-1.962179-5.7715644v-2.81072629c-3.603243-1.379001-10.053407-3.94622716-20.681818-3.94622716-11.8415349 0-17.7389016 2.09985278-22.7977065 4.18494833l.0565701.13640493-.0024969 1.98623219-2.2172001 5.3498731-2.7386758-1.0827988c-.2445939-.0967059-.7723512-.2704431-1.5041403-.4509307-2.0400785-.5031625-4.1374418-.6563354-5.9922669-.275596-.6804933.1396847-1.311855.3493001-1.8912709.6324236l-2.6423303 1.2911381-2.6438073-5.161667.1174158-2.29444605.0807294-.1949185c-4.3627677-2.03297481-8.3855564-4.1206632-22.8248203-4.1206632-10.6278541 0-17.077869 2.56626435-20.6818182 3.94529175v2.8116617c0 1.5958375-2.95454544 8.6573466-2.95454544 5.7715644s-5.90909091-2.8857822-5.90909091-2.8857822c-1.63090909 0-2.95454545-1.2899447-2.95454545-2.8857822v-2.88578221c0-1.59583755 1.32363636-2.8857822 2.95454545-2.8857822z"/></g></g></g></g></g></svg>