<!DOCTYPE svg PUBLIC "-//W3C//DTD SVG 20010904//EN" "http://www.w3.org/TR/2001/REC-SVG-20010904/DTD/svg10.dtd">
<svg version="1.0" xmlns="http://www.w3.org/2000/svg" width="517px" height="123px" viewBox="0 0 5170 1230" preserveAspectRatio="xMidYMid meet">
<g id="layer101" fill="#000000" stroke="none">
 <path d="M20 620 l0 -600 2570 0 2570 0 0 600 0 600 -2570 0 -2570 0 0 -600z"/>
 </g>
<g id="layer102" fill="#ffffff" stroke="none">
 <path d="M20 620 l0 -600 2570 0 2570 0 0 600 0 600 -2570 0 -2570 0 0 -600z m2520 0 l0 -440 -1185 0 -1185 0 0 440 0 440 1185 0 1185 0 0 -440z m591 199 l36 -9 23 -112 c13 -62 25 -119 28 -125 3 -10 -19 -13 -91 -13 l-96 0 -8 43 -9 42 41 5 41 5 -8 41 c-8 36 -13 43 -39 48 -43 8 -97 -16 -105 -49 -11 -44 2 -138 25 -176 29 -50 91 -82 144 -76 23 3 53 8 67 12 22 6 28 2 43 -30 10 -20 15 -40 12 -44 -10 -18 -98 -33 -158 -29 -72 6 -113 24 -160 72 -52 51 -79 118 -85 201 -7 118 36 188 126 205 41 8 118 3 173 -11z m395 0 c38 -12 78 -53 98 -101 9 -21 31 -109 50 -198 l33 -160 -51 0 -52 0 -36 166 c-39 175 -53 206 -104 218 -31 8 -62 -8 -69 -37 -5 -18 41 -264 61 -329 5 -16 -2 -18 -49 -18 l-54 0 -31 153 c-18 83 -32 169 -32 190 0 110 97 158 236 116z m309 -74 l18 -85 40 0 c65 0 115 -20 152 -62 32 -35 35 -43 35 -101 0 -108 -38 -137 -180 -137 -49 0 -90 3 -90 8 0 4 -20 101 -45 217 -25 115 -45 218 -45 227 0 15 9 18 49 18 l48 0 18 -85z m471 -107 l40 -193 57 -3 c45 -2 57 -7 61 -22 4 -11 9 -29 12 -40 5 -19 1 -20 -161 -20 -124 0 -167 3 -169 13 -21 66 -20 67 39 67 30 0 55 4 55 9 0 11 -69 339 -76 364 -5 15 2 17 49 17 l54 0 39 -192z m217 137 l27 -55 75 0 75 0 0 55 0 55 50 0 c50 0 50 0 50 -33 0 -18 -9 -120 -20 -227 -11 -107 -20 -200 -20 -207 0 -9 -18 -13 -62 -13 l-63 0 -122 235 c-68 129 -123 236 -123 239 0 4 24 6 53 6 l53 0 27 -55z"/>
 <path d="M605 728 c13 -35 43 -115 67 -178 l44 -115 38 0 38 0 64 168 c35 93 64 173 64 178 0 5 -18 9 -39 9 -37 0 -40 -2 -53 -42 l-15 -43 -59 0 -59 0 -15 43 c-14 40 -16 42 -57 42 l-42 0 24 -62z m185 -90 c0 -7 -8 -35 -18 -61 l-19 -49 -20 54 c-11 29 -19 56 -16 61 7 12 73 8 73 -5z"/>
 <path d="M950 610 l0 -180 33 0 c31 0 41 9 118 106 l84 106 3 -106 3 -106 39 0 40 0 0 180 0 180 -33 0 c-31 0 -41 -9 -118 -106 l-84 -106 -3 106 -3 106 -39 0 -40 0 0 -180z"/>
 <path d="M1332 613 l3 -178 38 -3 37 -3 0 78 1 78 72 -78 c69 -74 74 -77 115 -77 l44 0 -44 51 c-23 27 -54 63 -67 80 l-24 29 27 38 c14 20 47 65 72 100 l45 62 -45 0 c-44 0 -45 -1 -99 -75 l-54 -75 -21 23 c-17 18 -22 36 -22 75 l0 52 -40 0 -40 0 2 -177z"/>
 <path d="M1670 610 l0 -180 40 0 40 0 0 180 0 180 -40 0 -40 0 0 -180z"/>
 <path d="M1900 645 l0 -144 -57 -3 c-57 -3 -58 -3 -61 -35 l-3 -33 156 0 156 0 -3 33 c-3 31 -4 32 -55 35 l-53 3 0 145 0 144 -40 0 -40 0 0 -145z"/>
 <path d="M3877 574 c-4 -4 1 -36 18 -111 6 -27 31 -30 63 -7 43 30 17 96 -45 113 -17 5 -34 7 -36 5z"/>
 <path d="M4603 618 c2 -7 20 -47 38 -88 l34 -75 7 45 c3 25 7 64 7 88 l1 42 -46 0 c-33 0 -45 -4 -41 -12z"/>
 </g>

</svg>