<svg height="120pt" preserveAspectRatio="xMidYMid meet" viewBox="0 0 512 120" width="512pt" xmlns="http://www.w3.org/2000/svg"><g transform="matrix(.1 0 0 -.1 -3 121)"><path d="m30 610v-600h2560 2560v600 600h-2560-2560zm2510 0v-440h-1185-1185v440 440h1185 1185zm665 256c40-17 40-19 17-65-18-36-18-36-74-19-106 32-207-59-208-188 0-74 26-104 89-104 46 0 49 1 55 31 11 56 9 59-35 59-34 0-40 3-36 18 3 9 8 29 11 45l6 27h95c52 0 95-2 95-4 0-20-53-243-59-249-4-4-48-13-98-19-87-11-92-11-138 13-78 38-90 63-90 177 0 80 4 104 22 138 56 105 134 154 245 154 38 0 84-7 103-14zm248-16c-1-14-15-90-32-169-36-174-33-194 30-189 62 4 74 28 116 221l37 167h47c26 0 50-4 53-8 7-12-61-321-81-365-53-119-231-157-307-66-21 25-26 41-26 84 0 49 53 325 66 347 3 5 27 8 52 6 43-3 47-5 45-28zm565 6c46-24 66-60 66-120 0-98-57-155-168-165l-60-6-19-82-19-83h-54c-48 0-55 2-50 18 7 25 96 447 96 457 0 14 174-1 208-19zm457 14c3-5 1-27-5-49l-11-40-56-3-56-3-28-130c-15-71-32-156-39-187l-11-58h-55c-30 0-54 1-54 3 0 3 68 324 75 354 5 20 1 22-47 25l-53 3 3 35c4 62-2 60 171 60 93 0 162-4 166-10zm289-37c3-27 13-118 21-203s17-172 20-192l5-38h-55-55v55 55h-75-75l-25-55-24-55h-55c-31 0-56 3-56 6 0 4 55 112 121 240l121 234h63 63z"/><path d="m715 788c-3-7-32-84-65-171s-60-163-60-168c0-6 16-9 37-7 33 3 38 7 52 46l15 43 61-3 60-3 15-42c13-40 17-43 52-43 21 0 38 3 38 6 0 5-84 230-125 337-8 20-73 24-80 5zm72-179c5-28 4-29-36-29-22 0-41 2-41 4 0 4 27 82 36 106 7 17 31-30 41-81z"/><path d="m957 793c-4-3-7-84-7-180v-173h40 39l3 107 3 107 85-107c77-96 88-107 118-107h32v180 180h-40-39l-3-107-3-107-85 107c-69 86-90 107-111 107-14 0-29-3-32-7z"/><path d="m1340 620v-180h35 35v53c0 43 5 58 23 75l23 22 53-75c50-72 54-75 92-75 21 0 39 3 39 6 0 4-29 47-65 95-36 49-65 94-65 99s30 43 66 85l65 75h-44c-43 0-47-2-113-80l-69-80-3 80-3 80h-34-35z"/><path d="m1677 793c-4-3-7-84-7-180v-173h40 40v180 180h-33c-19 0-37-3-40-7z"/><path d="m1790 770c0-30 1-30 55-30h55v-150-150h35 34l3 148 3 147 58 3c56 3 57 4 57 32v30h-150-150z"/><path d="m3891 739c-16-71-14-79 13-79 49 0 92 67 64 101-7 9-25 19-40 23-25 6-27 3-37-45z"/><path d="m4640 693c-19-42-36-80-38-85-2-4 17-8 43-8h46l-7 83c-3 45-7 83-8 84s-17-32-36-74z"/></g></svg>